<?xml version="1.0" encoding="UTF-8" standalone="no"?>
<!-- Created with Inkscape (http://www.inkscape.org/) -->

<svg
   version="1.1"
   id="svg1"
   width="1100"
   height="580"
   viewBox="0 0 1100 580"
   xmlns="http://www.w3.org/2000/svg"
   xmlns:svg="http://www.w3.org/2000/svg">
  <defs
     id="defs1" />
  <g
     id="g1">
    <path
       id="path1"
       d="M 0,0 H 825 V 435 H 0 Z"
       style="fill:#ffffff;fill-opacity:1;fill-rule:nonzero;stroke:none"
       transform="scale(1.3333333)" />
    <text
       id="text1"
       xml:space="preserve"
       transform="matrix(1.3333333,0,0,1.3333333,297.99881,32.053016)"><tspan
         id="tspan1"
         style="font-variant:normal;font-weight:700;font-size:16.5px;font-family:'Liberation Sans';writing-mode:lr-tb;fill:#1d1d1d;fill-opacity:1;fill-rule:nonzero;stroke:none"
         x="0"
         y="0">Graph-to-Graph Correction Framework Pipeline</tspan></text>
    <path
       id="path2"
       d="m 26.477,41.223 h 136.835 c 4.641,0 8.379,4.015 8.379,9.004 v 334.546 c 0,4.989 -3.738,9.004 -8.379,9.004 H 26.477 c -4.641,0 -8.375,-4.015 -8.375,-9.004 V 50.227 c 0,-4.989 3.734,-9.004 8.375,-9.004 z"
       style="fill:#d6eaf8;fill-opacity:0.4;fill-rule:nonzero;stroke:none"
       transform="scale(1.3333333)" />
    <path
       id="path3"
       d="M 28.448,41.223 H 175.47 c 4.986,0 9.003,4.015 9.003,9.004 v 334.546 c 0,4.989 -4.017,9.004 -9.003,9.004 H 28.448 c -4.987,0 -8.999,-4.015 -8.999,-9.004 V 50.227 c 0,-4.989 4.012,-9.004 8.999,-9.004 z"
       style="fill:none;stroke:#2980b9;stroke-width:1.50022;stroke-linecap:butt;stroke-linejoin:miter;stroke-miterlimit:4;stroke-dasharray:none;stroke-opacity:0.5"
       transform="scale(1.2409533,1.3333333)" />
    <text
       id="text3"
       xml:space="preserve"
       transform="matrix(1.3333333,0,0,1.4325909,66.050544,79.968613)"><tspan
         id="tspan3"
         style="font-variant:normal;font-weight:700;font-size:9.77396px;font-family:'Liberation Sans';writing-mode:lr-tb;fill:#1a5276;fill-opacity:1;fill-rule:nonzero;stroke:none"
         x="0"
         y="0">Phase 1: Extraction</tspan></text>
    <path
       id="path4"
       d="M 212.086,51.641 H 501.77 c 4.863,0 8.781,3.82 8.781,8.562 v 339.695 c 0,4.747 -3.918,8.567 -8.781,8.567 H 212.086 c -4.863,0 -8.781,-3.82 -8.781,-8.567 V 60.203 c 0,-4.742 3.918,-8.562 8.781,-8.562 z"
       style="fill:#d5f5e3;fill-opacity:0.4;fill-rule:nonzero;stroke:none"
       transform="scale(1.3333333)" />
    <path
       id="path5"
       d="M 212.086,52.935 H 501.77 c 4.863,0 8.781,3.916 8.781,8.777 v 348.209 c 0,4.865 -3.918,8.781 -8.781,8.781 H 212.086 c -4.863,0 -8.781,-3.916 -8.781,-8.781 V 61.712 c 0,-4.861 3.918,-8.777 8.781,-8.777 z"
       style="fill:none;stroke:#27ae60;stroke-width:1.46306;stroke-linecap:butt;stroke-linejoin:miter;stroke-miterlimit:4;stroke-dasharray:none;stroke-opacity:0.5"
       transform="scale(1.3333333,1.300732)" />
    <text
       id="text5"
       xml:space="preserve"
       transform="matrix(1.3333333,0,0,1.3007322,394.33275,92.643153)"><tspan
         id="tspan5"
         style="font-variant:normal;font-weight:700;font-size:10.2414px;font-family:'Liberation Sans';writing-mode:lr-tb;fill:#196f3d;fill-opacity:1;fill-rule:nonzero;stroke:none"
         x="0"
         y="0">Phase 2: GNN Correction</tspan></text>
    <path
       id="path6"
       d="M 526.059,123.977 H 648 c 5.195,0 9.379,4.011 9.379,9 v 206.968 c 0,4.989 -4.184,9 -9.379,9 H 526.059 c -5.196,0 -9.379,-4.011 -9.379,-9 V 132.977 c 0,-4.989 4.183,-9 9.379,-9 z"
       style="fill:#fae5d3;fill-opacity:0.4;fill-rule:nonzero;stroke:none"
       transform="scale(1.3333333)" />
    <path
       id="path7"
       d="M 526.059,129.228 H 648 c 5.195,0 9.379,4.182 9.379,9.382 v 215.736 c 0,5.2 -4.184,9.381 -9.379,9.381 H 526.059 c -5.196,0 -9.379,-4.181 -9.379,-9.381 V 138.61 c 0,-5.2 4.183,-9.382 9.379,-9.382 z"
       style="fill:none;stroke:#e67e22;stroke-width:1.56333;stroke-linecap:butt;stroke-linejoin:miter;stroke-miterlimit:4;stroke-dasharray:none;stroke-opacity:0.5"
       transform="scale(1.3333333,1.2791467)" />
    <text
       id="text7"
       xml:space="preserve"
       transform="matrix(1.3333333,0,0,1.2791464,752.69806,190.29879)"><tspan
         id="tspan7"
         style="font-variant:normal;font-weight:700;font-size:10.9433px;font-family:'Liberation Sans';writing-mode:lr-tb;fill:#a04000;fill-opacity:1;fill-rule:nonzero;stroke:none"
         x="0"
         y="0">Phase 3:</tspan><tspan
         id="tspan8"
         style="font-variant:normal;font-weight:700;font-size:10.9433px;font-family:'Liberation Sans';writing-mode:lr-tb;fill:#a04000;fill-opacity:1;fill-rule:nonzero;stroke:none"
         x="-17.622532"
         y="14.069928">Reconstruction</tspan></text>
    <path
       id="path8"
       d="m 683.918,89.641 h 117.164 c 4.992,0 9.012,3.07 9.012,6.886 v 187.032 c 0,3.812 -4.02,6.882 -9.012,6.882 H 683.918 c -4.992,0 -9.012,-3.07 -9.012,-6.882 V 96.527 c 0,-3.816 4.02,-6.886 9.012,-6.886 z"
       style="fill:#ebdef0;fill-opacity:0.4;fill-rule:nonzero;stroke:none"
       transform="scale(1.3333333)" />
    <path
       id="path9"
       d="m 683.918,117.347 h 117.164 c 4.992,0 9.012,4.019 9.012,9.015 v 244.839 c 0,4.991 -4.02,9.01 -9.012,9.01 H 683.918 c -4.992,0 -9.012,-4.019 -9.012,-9.01 V 126.362 c 0,-4.996 4.02,-9.015 9.012,-9.015 z"
       style="fill:none;stroke:#8e44ad;stroke-width:1.50208;stroke-linecap:butt;stroke-linejoin:miter;stroke-miterlimit:4;stroke-dasharray:none;stroke-opacity:0.5"
       transform="scale(1.3333333,1.0185267)" />
    <text
       id="text9"
       xml:space="preserve"
       transform="matrix(1.3333333,0,0,1.018527,936.25321,138.64564)"><tspan
         id="tspan9"
         style="font-variant:normal;font-weight:700;font-size:10.5146px;font-family:'Liberation Sans';writing-mode:lr-tb;fill:#5b2c6f;fill-opacity:1;fill-rule:nonzero;stroke:none"
         x="0"
         y="0">Phase 4: Output</tspan></text>
    <path
       id="path10"
       d="m 34.5,75 h 126 c 2.492,0 4.5,2.008 4.5,4.5 v 36 c 0,2.492 -2.008,4.5 -4.5,4.5 h -126 c -2.492,0 -4.5,-2.008 -4.5,-4.5 v -36 C 30,77.008 32.008,75 34.5,75 Z"
       style="fill:#d5d8dc;fill-opacity:1;fill-rule:nonzero;stroke:#34495e;stroke-width:1.5;stroke-linecap:butt;stroke-linejoin:miter;stroke-miterlimit:4;stroke-dasharray:none;stroke-opacity:1"
       transform="scale(1.3333333)" />
    <text
       id="text10"
       xml:space="preserve"
       transform="matrix(1.3333333,0,0,1.3333333,92.447265,125)"><tspan
         id="tspan10"
         style="font-variant:normal;font-weight:700;font-size:9px;font-family:'Liberation Sans';writing-mode:lr-tb;fill:#1d1d1d;fill-opacity:1;fill-rule:nonzero;stroke:none"
         x="0"
         dx="0 0 0 0 0 0 0 -0.66600001"
         y="0">Input Volume</tspan></text>
    <text
       id="text11"
       xml:space="preserve"
       transform="matrix(1.3333333,0,0,1.3333333,85.253907,145)"><tspan
         id="tspan11"
         style="font-variant:normal;font-weight:normal;font-size:7.5px;font-family:'Liberation Sans';writing-mode:lr-tb;fill:#787878;fill-opacity:1;fill-rule:nonzero;stroke:none"
         x="0"
         y="0">Noisy Segmentation</tspan></text>
    <path
       id="path11"
       d="m 34.5,138.75 h 126 c 2.492,0 4.5,2.008 4.5,4.5 v 36 c 0,2.492 -2.008,4.5 -4.5,4.5 h -126 c -2.492,0 -4.5,-2.008 -4.5,-4.5 v -36 c 0,-2.492 2.008,-4.5 4.5,-4.5 z"
       style="fill:#d6eaf8;fill-opacity:1;fill-rule:nonzero;stroke:#1a5276;stroke-width:0.75;stroke-linecap:butt;stroke-linejoin:miter;stroke-miterlimit:4;stroke-dasharray:none;stroke-opacity:1"
       transform="scale(1.3333333)" />
    <text
       id="text12"
       xml:space="preserve"
       transform="matrix(1.3333333,0,0,1.3333333,88.316407,210)"><tspan
         id="tspan12"
         style="font-variant:normal;font-weight:700;font-size:9px;font-family:'Liberation Sans';writing-mode:lr-tb;fill:#1d1d1d;fill-opacity:1;fill-rule:nonzero;stroke:none"
         x="0"
         y="0">Preprocessing</tspan></text>
    <text
       id="text13"
       xml:space="preserve"
       transform="matrix(1.3333333,0,0,1.3333333,73.261719,230)"><tspan
         id="tspan13"
         style="font-variant:normal;font-weight:normal;font-size:7.5px;font-family:'Liberation Sans';writing-mode:lr-tb;fill:#787878;fill-opacity:1;fill-rule:nonzero;stroke:none"
         x="0"
         dx="0 0 0 0 0 0 0 0 0 0 0 0 0 0 0 0 0 0 0 -0.13500001"
         y="0">Histogram Eq. + Diffusion</tspan></text>
    <path
       id="path13"
       d="m 34.5,202.5 h 126 c 2.492,0 4.5,2.008 4.5,4.5 v 36 c 0,2.492 -2.008,4.5 -4.5,4.5 h -126 c -2.492,0 -4.5,-2.008 -4.5,-4.5 v -36 c 0,-2.492 2.008,-4.5 4.5,-4.5 z"
       style="fill:#d6eaf8;fill-opacity:1;fill-rule:nonzero;stroke:#1a5276;stroke-width:0.75;stroke-linecap:butt;stroke-linejoin:miter;stroke-miterlimit:4;stroke-dasharray:none;stroke-opacity:1"
       transform="scale(1.3333333)" />
    <text
       id="text14"
       xml:space="preserve"
       transform="matrix(1.3333333,0,0,1.3333333,85.993164,295)"><tspan
         id="tspan14"
         style="font-variant:normal;font-weight:700;font-size:9px;font-family:'Liberation Sans';writing-mode:lr-tb;fill:#1d1d1d;fill-opacity:1;fill-rule:nonzero;stroke:none"
         x="0"
         y="0">Skeletonization</tspan></text>
    <text
       id="text15"
       xml:space="preserve"
       transform="matrix(1.3333333,0,0,1.3333333,99.426269,315)"><tspan
         id="tspan15"
         style="font-variant:normal;font-weight:normal;font-size:7.5px;font-family:'Liberation Sans';writing-mode:lr-tb;fill:#787878;fill-opacity:1;fill-rule:nonzero;stroke:none"
         x="0"
         dx="0 0 0 0 -0.41249999"
         y="0">Lee Algorithm</tspan></text>
    <path
       id="path15"
       d="m 34.5,266.25 h 126 c 2.492,0 4.5,2.008 4.5,4.5 v 43.5 c 0,2.492 -2.008,4.5 -4.5,4.5 h -126 c -2.492,0 -4.5,-2.008 -4.5,-4.5 v -43.5 c 0,-2.492 2.008,-4.5 4.5,-4.5 z"
       style="fill:#d6eaf8;fill-opacity:1;fill-rule:nonzero;stroke:#1a5276;stroke-width:0.75;stroke-linecap:butt;stroke-linejoin:miter;stroke-miterlimit:4;stroke-dasharray:none;stroke-opacity:1"
       transform="scale(1.3333333)" />
    <text
       id="text16"
       xml:space="preserve"
       transform="matrix(1.3333333,0,0,1.3333333,75.991211,383)"><tspan
         id="tspan16"
         style="font-variant:normal;font-weight:700;font-size:9px;font-family:'Liberation Sans';writing-mode:lr-tb;fill:#1d1d1d;fill-opacity:1;fill-rule:nonzero;stroke:none"
         x="0"
         dx="0 0 0 0 0 0 0 0 2.5020001"
         y="0">AdaptiveSampling</tspan></text>
    <text
       id="text17"
       xml:space="preserve"
       transform="matrix(1.3333333,0,0,1.3333333,81.510687,405)"><tspan
         id="tspan17"
         style="font-variant:normal;font-weight:normal;font-size:7.5px;font-family:'Liberation Sans';writing-mode:lr-tb;fill:#787878;fill-opacity:1;fill-rule:nonzero;stroke:none"
         x="0"
         y="0">d(s) = d_base(1+ακ)</tspan><tspan
         id="tspan18"
         style="font-variant:normal;font-weight:normal;font-size:7.5px;font-family:'Noto Sans';writing-mode:lr-tb;fill:#787878;fill-opacity:1;fill-rule:nonzero;stroke:none"
         x="67.701416"
         y="0">⁻</tspan><tspan
         id="tspan19"
         style="font-variant:normal;font-weight:normal;font-size:7.5px;font-family:'Liberation Sans';writing-mode:lr-tb;fill:#787878;fill-opacity:1;fill-rule:nonzero;stroke:none"
         x="70.23642"
         y="0">¹</tspan></text>
    <path
       id="path19"
       d="m 34.5,337.5 h 126 c 2.492,0 4.5,2.008 4.5,4.5 v 36 c 0,2.492 -2.008,4.5 -4.5,4.5 h -126 c -2.492,0 -4.5,-2.008 -4.5,-4.5 v -36 c 0,-2.492 2.008,-4.5 4.5,-4.5 z"
       style="fill:#b3d9f2;fill-opacity:1;fill-rule:nonzero;stroke:#1a5276;stroke-width:1.5;stroke-linecap:butt;stroke-linejoin:miter;stroke-miterlimit:4;stroke-dasharray:none;stroke-opacity:1"
       transform="scale(1.3333333)" />
    <text
       id="text19"
       xml:space="preserve"
       transform="matrix(1.3333333,0,0,1.3333333,89.658203,475)"><tspan
         id="tspan20"
         style="font-variant:normal;font-weight:700;font-size:9px;font-family:'Liberation Sans';writing-mode:lr-tb;fill:#1d1d1d;fill-opacity:1;fill-rule:nonzero;stroke:none"
         x="0"
         y="0">Graph G_pred</tspan></text>
    <text
       id="text20"
       xml:space="preserve"
       transform="matrix(1.3333333,0,0,1.3333333,81.633301,495)"><tspan
         id="tspan21"
         style="font-variant:normal;font-weight:normal;font-size:7.5px;font-family:'Liberation Sans';writing-mode:lr-tb;fill:#787878;fill-opacity:1;fill-rule:nonzero;stroke:none"
         x="0"
         y="0">16D nodes, 8D edges</tspan></text>
    <path
       id="path21"
       d="m 97.5,120 v 18.75"
       style="fill:none;stroke:#787878;stroke-width:1.125;stroke-linecap:butt;stroke-linejoin:miter;stroke-miterlimit:4;stroke-dasharray:none;stroke-opacity:1"
       transform="scale(1.3333333)" />
    <path
       id="path22"
       d="m 100.875,128.625 h -6.75 L 97.5,138.75 Z"
       style="fill:#787878;fill-opacity:1;fill-rule:nonzero;stroke:none"
       transform="scale(1.3333333)" />
    <path
       id="path23"
       d="M 97.5,183.75 V 202.5"
       style="fill:none;stroke:#787878;stroke-width:1.125;stroke-linecap:butt;stroke-linejoin:miter;stroke-miterlimit:4;stroke-dasharray:none;stroke-opacity:1"
       transform="scale(1.3333333)" />
    <path
       id="path24"
       d="m 100.875,192.375 h -6.75 L 97.5,202.5 Z"
       style="fill:#787878;fill-opacity:1;fill-rule:nonzero;stroke:none"
       transform="scale(1.3333333)" />
    <path
       id="path25"
       d="m 97.5,247.5 v 18.75"
       style="fill:none;stroke:#787878;stroke-width:1.125;stroke-linecap:butt;stroke-linejoin:miter;stroke-miterlimit:4;stroke-dasharray:none;stroke-opacity:1"
       transform="scale(1.3333333)" />
    <path
       id="path26"
       d="m 100.875,256.125 h -6.75 L 97.5,266.25 Z"
       style="fill:#787878;fill-opacity:1;fill-rule:nonzero;stroke:none"
       transform="scale(1.3333333)" />
    <path
       id="path27"
       d="M 97.5,318.75 V 337.5"
       style="fill:none;stroke:#787878;stroke-width:1.125;stroke-linecap:butt;stroke-linejoin:miter;stroke-miterlimit:4;stroke-dasharray:none;stroke-opacity:1"
       transform="scale(1.3333333)" />
    <path
       id="path28"
       d="m 100.875,327.375 h -6.75 L 97.5,337.5 Z"
       style="fill:#787878;fill-opacity:1;fill-rule:nonzero;stroke:none"
       transform="scale(1.3333333)" />
    <path
       id="path29"
       d="m 221.25,75 h 105 c 2.078,0 3.75,1.672 3.75,3.75 v 33.75 c 0,2.078 -1.672,3.75 -3.75,3.75 h -105 c -2.078,0 -3.75,-1.672 -3.75,-3.75 V 78.75 c 0,-2.078 1.672,-3.75 3.75,-3.75 z"
       style="fill:#d5f5e3;fill-opacity:1;fill-rule:nonzero;stroke:#196f3d;stroke-width:0.75;stroke-linecap:butt;stroke-linejoin:miter;stroke-miterlimit:4;stroke-dasharray:none;stroke-opacity:1"
       transform="scale(1.3333333)" />
    <text
       id="text29"
       xml:space="preserve"
       transform="matrix(1.3333333,0,0,1.3333333,329.23926,122)"><tspan
         id="tspan29"
         style="font-variant:normal;font-weight:700;font-size:8.25px;font-family:'Liberation Sans';writing-mode:lr-tb;fill:#1d1d1d;fill-opacity:1;fill-rule:nonzero;stroke:none"
         x="0"
         y="0">Pred Encoder</tspan></text>
    <text
       id="text30"
       xml:space="preserve"
       transform="matrix(1.3333333,0,0,1.3333333,327.93433,140)"><tspan
         id="tspan30"
         style="font-variant:normal;font-weight:normal;font-size:6.75px;font-family:'Liberation Sans';writing-mode:lr-tb;fill:#787878;fill-opacity:1;fill-rule:nonzero;stroke:none"
         x="0"
         dx="0 0 0 1.755 1.8765"
         y="0">MLP+Confidence</tspan></text>
    <path
       id="path30"
       d="m 378.75,75 h 105 c 2.078,0 3.75,1.672 3.75,3.75 v 33.75 c 0,2.078 -1.672,3.75 -3.75,3.75 h -105 c -2.078,0 -3.75,-1.672 -3.75,-3.75 V 78.75 c 0,-2.078 1.672,-3.75 3.75,-3.75 z"
       style="fill:#e8e8e8;fill-opacity:1;fill-rule:nonzero;stroke:#787878;stroke-width:0.75;stroke-linecap:butt;stroke-linejoin:miter;stroke-miterlimit:4;stroke-dasharray:3, 1.5;stroke-dashoffset:0;stroke-opacity:1"
       transform="scale(1.3333333)" />
    <text
       id="text31"
       xml:space="preserve"
       transform="matrix(1.3333333,0,0,1.3333333,543.82886,122)"><tspan
         id="tspan31"
         style="font-variant:normal;font-weight:700;font-size:8.25px;font-family:'Liberation Sans';writing-mode:lr-tb;fill:#1d1d1d;fill-opacity:1;fill-rule:nonzero;stroke:none"
         x="0"
         y="0">GT Encoder</tspan></text>
    <text
       id="text32"
       xml:space="preserve"
       transform="matrix(1.3333333,0,0,1.3333333,548.40649,140)"><tspan
         id="tspan32"
         style="font-variant:normal;font-weight:normal;font-size:6.75px;font-family:'Liberation Sans';writing-mode:lr-tb;fill:#787878;fill-opacity:1;fill-rule:nonzero;stroke:none"
         x="0"
         dx="0 -0.24975 0 0 0 0 0 0 1.8765"
         y="0">TrainingOnly</tspan></text>
    <path
       id="path32"
       d="m 330,95.25 h 45"
       style="fill:none;stroke:#e74c3c;stroke-width:1.5;stroke-linecap:butt;stroke-linejoin:miter;stroke-miterlimit:4;stroke-dasharray:none;stroke-opacity:1"
       transform="scale(1.3333333)" />
    <path
       id="path33"
       d="m 343.5,90.75 v 9 L 330,95.25 Z"
       style="fill:#e74c3c;fill-opacity:1;fill-rule:nonzero;stroke:none"
       transform="scale(1.3333333)" />
    <path
       id="path34"
       d="m 361.5,90.75 v 9 l 13.5,-4.5 z"
       style="fill:#e74c3c;fill-opacity:1;fill-rule:nonzero;stroke:none"
       transform="scale(1.3333333)" />
    <text
       id="text34"
       xml:space="preserve"
       transform="matrix(1.3333333,0,0,1.3333333,446.75073,118)"><tspan
         id="tspan34"
         style="font-variant:normal;font-weight:700;font-size:6.75px;font-family:'Liberation Sans';writing-mode:lr-tb;fill:#e74c3c;fill-opacity:1;fill-rule:nonzero;stroke:none"
         x="0"
         y="0">Cross-Attn</tspan></text>
    <path
       id="path35"
       d="m 222,135 h 261 c 2.492,0 4.5,2.008 4.5,4.5 V 183 c 0,2.492 -2.008,4.5 -4.5,4.5 H 222 c -2.492,0 -4.5,-2.008 -4.5,-4.5 v -43.5 c 0,-2.492 2.008,-4.5 4.5,-4.5 z"
       style="fill:#d5f5e3;fill-opacity:1;fill-rule:nonzero;stroke:#196f3d;stroke-width:0.75;stroke-linecap:butt;stroke-linejoin:miter;stroke-miterlimit:4;stroke-dasharray:none;stroke-opacity:1"
       transform="scale(1.3333333)" />
    <text
       id="text35"
       xml:space="preserve"
       transform="matrix(1.3333333,0,0,1.3333333,362.21387,205)"><tspan
         id="tspan35"
         style="font-variant:normal;font-weight:700;font-size:9px;font-family:'Liberation Sans';writing-mode:lr-tb;fill:#1d1d1d;fill-opacity:1;fill-rule:nonzero;stroke:none"
         x="0"
         dx="0 0 0 0 0 0 0 0 0 0 0 0 0 0 0 0 0 -0.333"
         y="0">Multi-Head Graph Attention (3 Layers)</tspan></text>
    <text
       id="text36"
       xml:space="preserve"
       transform="matrix(1.3333333,0,0,1.3333333,391.40381,230)"><tspan
         id="tspan36"
         style="font-variant:normal;font-weight:normal;font-size:7.5px;font-family:'Liberation Sans';writing-mode:lr-tb;fill:#787878;fill-opacity:1;fill-rule:nonzero;stroke:none"
         x="0"
         dx="0 0 0 0 0 0 0 0 0 0 0 0 0 0 0 0 0 -0.55500001"
         y="0">H^(ℓ+1) = Norm(GAT(H^(ℓ)) + H^(ℓ))</tspan></text>
    <path
       id="path36"
       d="M 273.75,116.25 V 135"
       style="fill:none;stroke:#787878;stroke-width:1.125;stroke-linecap:butt;stroke-linejoin:miter;stroke-miterlimit:4;stroke-dasharray:none;stroke-opacity:1"
       transform="scale(1.3333333)" />
    <path
       id="path37"
       d="m 277.125,124.875 h -6.75 L 273.75,135 Z"
       style="fill:#787878;fill-opacity:1;fill-rule:nonzero;stroke:none"
       transform="scale(1.3333333)" />
    <path
       id="path38"
       d="M 431.25,116.25 V 135"
       style="fill:none;stroke:#787878;stroke-width:1.125;stroke-linecap:butt;stroke-linejoin:miter;stroke-miterlimit:4;stroke-dasharray:3, 1.5;stroke-dashoffset:0;stroke-opacity:1"
       transform="scale(1.3333333)" />
    <path
       id="path39"
       d="m 434.625,124.875 h -6.75 L 431.25,135 Z"
       style="fill:#787878;fill-opacity:1;fill-rule:nonzero;stroke:none"
       transform="scale(1.3333333)" />
    <path
       id="path40"
       d="M 221.25,210 H 337.5 c 2.078,0 3.75,1.672 3.75,3.75 v 67.5 c 0,2.078 -1.672,3.75 -3.75,3.75 H 221.25 c -2.078,0 -3.75,-1.672 -3.75,-3.75 v -67.5 c 0,-2.078 1.672,-3.75 3.75,-3.75 z"
       style="fill:#fae5d3;fill-opacity:1;fill-rule:nonzero;stroke:#a04000;stroke-width:0.75;stroke-linecap:butt;stroke-linejoin:miter;stroke-miterlimit:4;stroke-dasharray:none;stroke-opacity:1"
       transform="scale(1.3333333)" />
    <text
       id="text40"
       xml:space="preserve"
       transform="matrix(1.3333333,0,0,1.3333333,326.88818,305)"><tspan
         id="tspan40"
         style="font-variant:normal;font-weight:700;font-size:8.25px;font-family:'Liberation Sans';writing-mode:lr-tb;fill:#1d1d1d;fill-opacity:1;fill-rule:nonzero;stroke:none"
         x="0"
         dx="0 -0.61049998"
         y="0">Topology Module</tspan></text>
    <text
       id="text41"
       xml:space="preserve"
       transform="matrix(1.3333333,0,0,1.3333333,337.97974,325)"><tspan
         id="tspan41"
         style="font-variant:normal;font-weight:normal;font-size:6.75px;font-family:'Liberation Sans';writing-mode:lr-tb;fill:#787878;fill-opacity:1;fill-rule:nonzero;stroke:none"
         x="0"
         y="0">Node Operations</tspan><tspan
         id="tspan42"
         style="font-variant:normal;font-weight:normal;font-size:6.75px;font-family:'Liberation Sans';writing-mode:lr-tb;fill:#787878;fill-opacity:1;fill-rule:nonzero;stroke:none"
         x="5.8123169"
         y="12.750001">Position Δp_i</tspan><tspan
         id="tspan43"
         style="font-variant:normal;font-weight:normal;font-size:6.75px;font-family:'Liberation Sans';writing-mode:lr-tb;fill:#787878;fill-opacity:1;fill-rule:nonzero;stroke:none"
         x="0.18621901"
         y="25.500002">Edge Operations</tspan></text>
    <path
       id="path43"
       d="m 367.5,210 h 116.25 c 2.078,0 3.75,1.672 3.75,3.75 v 67.5 c 0,2.078 -1.672,3.75 -3.75,3.75 H 367.5 c -2.078,0 -3.75,-1.672 -3.75,-3.75 v -67.5 c 0,-2.078 1.672,-3.75 3.75,-3.75 z"
       style="fill:#d5f5e3;fill-opacity:1;fill-rule:nonzero;stroke:#196f3d;stroke-width:0.75;stroke-linecap:butt;stroke-linejoin:miter;stroke-miterlimit:4;stroke-dasharray:none;stroke-opacity:1"
       transform="scale(1.3333333)" />
    <text
       id="text43"
       xml:space="preserve"
       transform="matrix(1.3333333,0,0,1.3333333,522.69385,305)"><tspan
         id="tspan44"
         style="font-variant:normal;font-weight:700;font-size:8.25px;font-family:'Liberation Sans';writing-mode:lr-tb;fill:#1d1d1d;fill-opacity:1;fill-rule:nonzero;stroke:none"
         x="0"
         y="0">Anatomy Module</tspan></text>
    <text
       id="text44"
       xml:space="preserve"
       transform="matrix(1.3333333,0,0,1.3333333,540.38452,325)"><tspan
         id="tspan45"
         style="font-variant:normal;font-weight:normal;font-size:6.75px;font-family:'Liberation Sans';writing-mode:lr-tb;fill:#787878;fill-opacity:1;fill-rule:nonzero;stroke:none"
         x="0"
         y="0">Murray's Law</tspan><tspan
         id="tspan46"
         style="font-variant:normal;font-weight:normal;font-size:6.75px;font-family:'Liberation Sans';writing-mode:lr-tb;fill:#787878;fill-opacity:1;fill-rule:nonzero;stroke:none"
         x="7.0153222"
         dx="0 -0.74924999"
         y="12.750001">Tapering</tspan><tspan
         id="tspan47"
         style="font-variant:normal;font-weight:normal;font-size:6.75px;font-family:'Liberation Sans';writing-mode:lr-tb;fill:#787878;fill-opacity:1;fill-rule:nonzero;stroke:none"
         x="-4.1808419"
         dx="0 0 0 0 0 0 0 -0.49950001"
         y="25.500002">Angle Validation</tspan></text>
    <path
       id="path47"
       d="m 352.5,187.5 v 11.25 H 279 V 210"
       style="fill:none;stroke:#787878;stroke-width:1.125;stroke-linecap:butt;stroke-linejoin:miter;stroke-miterlimit:4;stroke-dasharray:none;stroke-opacity:1"
       transform="scale(1.3333333)" />
    <path
       id="path48"
       d="m 282.375,199.875 h -6.75 L 279,210 Z"
       style="fill:#787878;fill-opacity:1;fill-rule:nonzero;stroke:none"
       transform="scale(1.3333333)" />
    <path
       id="path49"
       d="m 352.5,187.5 v 11.25 h 72.75 V 210"
       style="fill:none;stroke:#787878;stroke-width:1.125;stroke-linecap:butt;stroke-linejoin:miter;stroke-miterlimit:4;stroke-dasharray:none;stroke-opacity:1"
       transform="scale(1.3333333)" />
    <path
       id="path50"
       d="m 428.625,199.875 h -6.75 L 425.25,210 Z"
       style="fill:#787878;fill-opacity:1;fill-rule:nonzero;stroke:none"
       transform="scale(1.3333333)" />
    <path
       id="path51"
       d="m 237,307.5 h 231 c 2.492,0 4.5,2.008 4.5,4.5 v 28.5 c 0,2.492 -2.008,4.5 -4.5,4.5 H 237 c -2.492,0 -4.5,-2.008 -4.5,-4.5 V 312 c 0,-2.492 2.008,-4.5 4.5,-4.5 z"
       style="fill:#d5f5e3;fill-opacity:1;fill-rule:nonzero;stroke:#196f3d;stroke-width:0.75;stroke-linecap:butt;stroke-linejoin:miter;stroke-miterlimit:4;stroke-dasharray:none;stroke-opacity:1"
       transform="scale(1.3333333)" />
    <text
       id="text51"
       xml:space="preserve"
       transform="matrix(1.3333333,0,0,1.3333333,380.82324,440)"><tspan
         id="tspan51"
         style="font-variant:normal;font-weight:700;font-size:9px;font-family:'Liberation Sans';writing-mode:lr-tb;fill:#1d1d1d;fill-opacity:1;fill-rule:nonzero;stroke:none"
         x="0"
         dx="0 0 0 0 0 0 0 2.5020001 0 0 0 0 0 2.5020001 2.493 0 0 0 0 0 2.5020001"
         y="0">FeatureFusion+OutputHeads</tspan></text>
    <path
       id="path52"
       d="m 279,285 v 11.25 h 21 v 11.25"
       style="fill:none;stroke:#787878;stroke-width:1.125;stroke-linecap:butt;stroke-linejoin:miter;stroke-miterlimit:4;stroke-dasharray:none;stroke-opacity:1"
       transform="scale(1.3333333)" />
    <path
       id="path53"
       d="m 303.375,297.375 h -6.75 L 300,307.5 Z"
       style="fill:#787878;fill-opacity:1;fill-rule:nonzero;stroke:none"
       transform="scale(1.3333333)" />
    <path
       id="path54"
       d="m 425.25,285 v 11.25 H 405 v 11.25"
       style="fill:none;stroke:#787878;stroke-width:1.125;stroke-linecap:butt;stroke-linejoin:miter;stroke-miterlimit:4;stroke-dasharray:none;stroke-opacity:1"
       transform="scale(1.3333333)" />
    <path
       id="path55"
       d="m 408.375,297.375 h -6.75 L 405,307.5 Z"
       style="fill:#787878;fill-opacity:1;fill-rule:nonzero;stroke:none"
       transform="scale(1.3333333)" />
    <path
       id="path56"
       d="m 282,363.75 h 141 c 2.492,0 4.5,2.008 4.5,4.5 v 32.25 c 0,2.492 -2.008,4.5 -4.5,4.5 H 282 c -2.492,0 -4.5,-2.008 -4.5,-4.5 v -32.25 c 0,-2.492 2.008,-4.5 4.5,-4.5 z"
       style="fill:#b8e6c1;fill-opacity:1;fill-rule:nonzero;stroke:#196f3d;stroke-width:1.5;stroke-linecap:butt;stroke-linejoin:miter;stroke-miterlimit:4;stroke-dasharray:none;stroke-opacity:1"
       transform="scale(1.3333333)" />
    <text
       id="text56"
       xml:space="preserve"
       transform="matrix(1.3333333,0,0,1.3333333,430.98828,508)"><tspan
         id="tspan56"
         style="font-variant:normal;font-weight:700;font-size:9px;font-family:'Liberation Sans';writing-mode:lr-tb;fill:#1d1d1d;fill-opacity:1;fill-rule:nonzero;stroke:none"
         x="0"
         dx="0 0 0 0 0 2.5020001"
         y="0">GraphG_corr</tspan></text>
    <text
       id="text57"
       xml:space="preserve"
       transform="matrix(1.3333333,0,0,1.3333333,448.04687,528)"><tspan
         id="tspan57"
         style="font-variant:normal;font-weight:normal;font-size:7.5px;font-family:'Liberation Sans';writing-mode:lr-tb;fill:#787878;fill-opacity:1;fill-rule:nonzero;stroke:none"
         x="0"
         y="0">Corrected</tspan></text>
    <path
       id="path57"
       d="m 352.5,345 v 18.75"
       style="fill:none;stroke:#787878;stroke-width:1.125;stroke-linecap:butt;stroke-linejoin:miter;stroke-miterlimit:4;stroke-dasharray:none;stroke-opacity:1"
       transform="scale(1.3333333)" />
    <path
       id="path58"
       d="m 355.875,353.625 h -6.75 l 3.375,10.125 z"
       style="fill:#787878;fill-opacity:1;fill-rule:nonzero;stroke:none"
       transform="scale(1.3333333)" />
    <path
       id="path59"
       d="m 165,360 h 30 V 95.25 h 22.5"
       style="fill:none;stroke:#1a5276;stroke-width:1.5;stroke-linecap:butt;stroke-linejoin:miter;stroke-miterlimit:4;stroke-dasharray:none;stroke-opacity:1"
       transform="scale(1.3333333)" />
    <path
       id="path60"
       d="m 204,90.75 v 9 l 13.5,-4.5 z"
       style="fill:#1a5276;fill-opacity:1;fill-rule:nonzero;stroke:none"
       transform="scale(1.3333333)" />
    <path
       id="path61"
       d="m 543.75,161.25 h 97.5 c 2.078,0 3.75,1.672 3.75,3.75 v 33.75 c 0,2.078 -1.672,3.75 -3.75,3.75 h -97.5 c -2.078,0 -3.75,-1.672 -3.75,-3.75 V 165 c 0,-2.078 1.672,-3.75 3.75,-3.75 z"
       style="fill:#fae5d3;fill-opacity:1;fill-rule:nonzero;stroke:#a04000;stroke-width:0.75;stroke-linecap:butt;stroke-linejoin:miter;stroke-miterlimit:4;stroke-dasharray:none;stroke-opacity:1"
       transform="scale(1.3333333)" />
    <text
       id="text61"
       xml:space="preserve"
       transform="matrix(1.3333333,0,0,1.3333333,744.54712,238)"><tspan
         id="tspan61"
         style="font-variant:normal;font-weight:700;font-size:8.25px;font-family:'Liberation Sans';writing-mode:lr-tb;fill:#1d1d1d;fill-opacity:1;fill-rule:nonzero;stroke:none"
         x="0"
         dx="0 -0.45375001 0 0 0 0 0 0 -0.61049998"
         y="0">Vessel Templates</tspan></text>
    <text
       id="text62"
       xml:space="preserve"
       transform="matrix(1.3333333,0,0,1.3333333,742.60498,256)"><tspan
         id="tspan62"
         style="font-variant:normal;font-weight:normal;font-size:6.75px;font-family:'Liberation Sans';writing-mode:lr-tb;fill:#787878;fill-opacity:1;fill-rule:nonzero;stroke:none"
         x="0"
         dx="0 0 0 0 0 0 0 0 0 1.8765 1.8765"
         y="0">Cylinders+Bifurcations</tspan></text>
    <path
       id="path62"
       d="m 543.75,221.25 h 97.5 c 2.078,0 3.75,1.672 3.75,3.75 v 37.5 c 0,2.078 -1.672,3.75 -3.75,3.75 h -97.5 c -2.078,0 -3.75,-1.672 -3.75,-3.75 V 225 c 0,-2.078 1.672,-3.75 3.75,-3.75 z"
       style="fill:#fae5d3;fill-opacity:1;fill-rule:nonzero;stroke:#a04000;stroke-width:0.75;stroke-linecap:butt;stroke-linejoin:miter;stroke-miterlimit:4;stroke-dasharray:none;stroke-opacity:1"
       transform="scale(1.3333333)" />
    <text
       id="text63"
       xml:space="preserve"
       transform="matrix(1.3333333,0,0,1.3333333,743.86499,320)"><tspan
         id="tspan63"
         style="font-variant:normal;font-weight:700;font-size:8.25px;font-family:'Liberation Sans';writing-mode:lr-tb;fill:#1d1d1d;fill-opacity:1;fill-rule:nonzero;stroke:none"
         x="0"
         dx="0 0 0 2.2934999"
         y="0">SDFComposition</tspan></text>
    <text
       id="text64"
       xml:space="preserve"
       transform="matrix(1.3333333,0,0,1.3333333,755.99072,340)"><tspan
         id="tspan64"
         style="font-variant:normal;font-weight:normal;font-size:6.75px;font-family:'Liberation Sans';writing-mode:lr-tb;fill:#787878;fill-opacity:1;fill-rule:nonzero;stroke:none"
         x="0"
         dx="0 0 0 0 0 0 0 0 0 0 1.8765"
         y="0">min(S_cyl,S_bif)</tspan></text>
    <path
       id="path64"
       d="m 543.75,285 h 97.5 c 2.078,0 3.75,1.672 3.75,3.75 v 33.75 c 0,2.078 -1.672,3.75 -3.75,3.75 h -97.5 c -2.078,0 -3.75,-1.672 -3.75,-3.75 v -33.75 c 0,-2.078 1.672,-3.75 3.75,-3.75 z"
       style="fill:#f5cba7;fill-opacity:1;fill-rule:nonzero;stroke:#a04000;stroke-width:1.5;stroke-linecap:butt;stroke-linejoin:miter;stroke-miterlimit:4;stroke-dasharray:none;stroke-opacity:1"
       transform="scale(1.3333333)" />
    <text
       id="text65"
       xml:space="preserve"
       transform="matrix(1.3333333,0,0,1.3333333,748.43042,403)"><tspan
         id="tspan65"
         style="font-variant:normal;font-weight:700;font-size:8.25px;font-family:'Liberation Sans';writing-mode:lr-tb;fill:#1d1d1d;fill-opacity:1;fill-rule:nonzero;stroke:none"
         x="0"
         y="0">Enhanced Mask</tspan></text>
    <text
       id="text66"
       xml:space="preserve"
       transform="matrix(1.3333333,0,0,1.3333333,763.97998,421)"><tspan
         id="tspan66"
         style="font-variant:normal;font-weight:normal;font-size:6.75px;font-family:'Liberation Sans';writing-mode:lr-tb;fill:#787878;fill-opacity:1;fill-rule:nonzero;stroke:none"
         x="0"
         y="0">M_enhanced</tspan></text>
    <path
       id="path66"
       d="m 592.5,202.5 v 18.75"
       style="fill:none;stroke:#787878;stroke-width:1.125;stroke-linecap:butt;stroke-linejoin:miter;stroke-miterlimit:4;stroke-dasharray:none;stroke-opacity:1"
       transform="scale(1.3333333)" />
    <path
       id="path67"
       d="m 595.875,211.125 h -6.75 l 3.375,10.125 z"
       style="fill:#787878;fill-opacity:1;fill-rule:nonzero;stroke:none"
       transform="scale(1.3333333)" />
    <path
       id="path68"
       d="M 592.5,266.25 V 285"
       style="fill:none;stroke:#787878;stroke-width:1.125;stroke-linecap:butt;stroke-linejoin:miter;stroke-miterlimit:4;stroke-dasharray:none;stroke-opacity:1"
       transform="scale(1.3333333)" />
    <path
       id="path69"
       d="m 595.875,274.875 h -6.75 L 592.5,285 Z"
       style="fill:#787878;fill-opacity:1;fill-rule:nonzero;stroke:none"
       transform="scale(1.3333333)" />
    <path
       id="path70"
       d="M 427.5,384 H 525 V 181.5 h 15"
       style="fill:none;stroke:#196f3d;stroke-width:1.5;stroke-linecap:butt;stroke-linejoin:miter;stroke-miterlimit:4;stroke-dasharray:none;stroke-opacity:1"
       transform="scale(1.3333333)" />
    <path
       id="path71"
       d="m 526.5,177 v 9 l 13.5,-4.5 z"
       style="fill:#196f3d;fill-opacity:1;fill-rule:nonzero;stroke:none"
       transform="scale(1.3333333)" />
    <path
       id="path72"
       d="m 693.75,112.5 h 97.5 c 2.078,0 3.75,1.672 3.75,3.75 v 52.5 c 0,2.078 -1.672,3.75 -3.75,3.75 h -97.5 c -2.078,0 -3.75,-1.672 -3.75,-3.75 v -52.5 c 0,-2.078 1.672,-3.75 3.75,-3.75 z"
       style="fill:#d7bde2;fill-opacity:1;fill-rule:nonzero;stroke:#5b2c6f;stroke-width:1.5;stroke-linecap:butt;stroke-linejoin:miter;stroke-miterlimit:4;stroke-dasharray:none;stroke-opacity:1"
       transform="scale(1.3333333)" />
    <text
       id="text72"
       xml:space="preserve"
       transform="matrix(1.3333333,0,0,1.3333333,957.61768,178)"><tspan
         id="tspan72"
         style="font-variant:normal;font-weight:700;font-size:8.25px;font-family:'Liberation Sans';writing-mode:lr-tb;fill:#1d1d1d;fill-opacity:1;fill-rule:nonzero;stroke:none"
         x="0"
         y="0">Final Output</tspan></text>
    <text
       id="text73"
       xml:space="preserve"
       transform="matrix(1.3333333,0,0,1.3333333,948.23218,198)"><tspan
         id="tspan73"
         style="font-variant:normal;font-weight:normal;font-size:6.75px;font-family:'Liberation Sans';writing-mode:lr-tb;fill:#787878;fill-opacity:1;fill-rule:nonzero;stroke:none"
         x="0"
         dx="0 -0.74924999"
         y="0">Topologically Correct</tspan><tspan
         id="tspan74"
         style="font-variant:normal;font-weight:normal;font-size:6.75px;font-family:'Liberation Sans';writing-mode:lr-tb;fill:#787878;fill-opacity:1;fill-rule:nonzero;stroke:none"
         x="4.0012178"
         dx="0 0 0 0 0 0 0 0 0 0 0 0 0 0 -0.49950001"
         y="12.750001">Anatomically Valid</tspan></text>
    <path
       id="path74"
       d="m 693.75,210 h 97.5 c 2.078,0 3.75,1.672 3.75,3.75 v 45 c 0,2.078 -1.672,3.75 -3.75,3.75 h -97.5 c -2.078,0 -3.75,-1.672 -3.75,-3.75 v -45 c 0,-2.078 1.672,-3.75 3.75,-3.75 z"
       style="fill:#ebdef0;fill-opacity:1;fill-rule:nonzero;stroke:#5b2c6f;stroke-width:0.75;stroke-linecap:butt;stroke-linejoin:miter;stroke-miterlimit:4;stroke-dasharray:none;stroke-opacity:1"
       transform="scale(1.3333333)" />
    <text
       id="text74"
       xml:space="preserve"
       transform="matrix(1.3333333,0,0,1.3333333,935,305)"><tspan
         id="tspan75"
         style="font-variant:normal;font-weight:700;font-size:8.25px;font-family:'Liberation Sans';writing-mode:lr-tb;fill:#1d1d1d;fill-opacity:1;fill-rule:nonzero;stroke:none"
         x="0"
         y="0">Confidence Blending</tspan></text>
    <text
       id="text75"
       xml:space="preserve"
       transform="matrix(1.3333333,0,0,1.3333333,947.06543,330)"><tspan
         id="tspan76"
         style="font-variant:normal;font-weight:normal;font-size:6.75px;font-family:'Liberation Sans';writing-mode:lr-tb;fill:#787878;fill-opacity:1;fill-rule:nonzero;stroke:none"
         x="0"
         dx="0 0 0 0 0 0 0 0 0 0 0 1.8765"
         y="0">w = (C_orig- τ)/(1 - τ)</tspan></text>
    <path
       id="path76"
       d="M 742.5,210 V 172.5"
       style="fill:none;stroke:#5b2c6f;stroke-width:1.5;stroke-linecap:butt;stroke-linejoin:miter;stroke-miterlimit:4;stroke-dasharray:none;stroke-opacity:1"
       transform="scale(1.3333333)" />
    <path
       id="path77"
       d="m 738,186 h 9 l -4.5,-13.5 z"
       style="fill:#5b2c6f;fill-opacity:1;fill-rule:nonzero;stroke:none"
       transform="scale(1.3333333)" />
    <path
       id="path78"
       d="m 645,305.25 h 30 v -69 h 15"
       style="fill:none;stroke:#a04000;stroke-width:1.5;stroke-linecap:butt;stroke-linejoin:miter;stroke-miterlimit:4;stroke-dasharray:none;stroke-opacity:1"
       transform="scale(1.3333333)" />
    <path
       id="path79"
       d="m 676.5,231.75 v 9 l 13.5,-4.5 z"
       style="fill:#a04000;fill-opacity:1;fill-rule:nonzero;stroke:none"
       transform="scale(1.3333333)" />
    <path
       id="path80"
       d="m 163.434,98.377 h 18.886 v 319.891 h 562.766 v -154.3"
       style="fill:none;stroke:#2980b9;stroke-width:1.13105;stroke-linecap:butt;stroke-linejoin:miter;stroke-miterlimit:4;stroke-dasharray:none;stroke-opacity:1"
       transform="scale(1.3333333,1.328544)" />
    <path
       id="path81"
       d="m 741.691,273.164 h 6.786 l -3.391,-10.144 z"
       style="fill:#1a5276;fill-opacity:1;fill-rule:nonzero;stroke:none"
       transform="scale(1.3333333)" />
    <text
       id="text81"
       xml:space="preserve"
       transform="matrix(0,-1.3333333,1.3381393,0,253.57853,344.16768)"><tspan
         id="tspan81"
         style="font-style:italic;font-variant:normal;font-weight:normal;font-size:7.49992px;font-family:'Liberation Sans';writing-mode:lr-tb;fill:#2980b9;fill-opacity:1;fill-rule:nonzero;stroke:none"
         x="0"
         y="0">Original M_orig</tspan></text>
  </g>
</svg>
